<mxfile host="de.vicp.net" agent="Mozilla/5.0 (Windows NT 10.0; Win64; x64) AppleWebKit/537.36 (KHTML, like Gecko) Chrome/130.0.0.0 Safari/537.36" version="24.7.17" pages="4">
  <diagram id="voiO_nHvWwAP3yEgLVmu" name="download_handle_to_file">
    <mxGraphModel dx="864" dy="755" grid="1" gridSize="10" guides="1" tooltips="1" connect="1" arrows="1" fold="1" page="1" pageScale="1" pageWidth="1100" pageHeight="850" math="0" shadow="0">
      <root>
        <mxCell id="0" />
        <mxCell id="1" parent="0" />
        <mxCell id="2" value="逻辑" style="rounded=1;whiteSpace=wrap;html=1;fillColor=#fff2cc;strokeColor=#d6b656;" parent="1" vertex="1">
          <mxGeometry x="230" y="30" width="80" height="30" as="geometry" />
        </mxCell>
        <mxCell id="3" value="第三方" style="rounded=1;whiteSpace=wrap;html=1;fillColor=#f8cecc;strokeColor=#b85450;" parent="1" vertex="1">
          <mxGeometry x="350" y="30" width="80" height="30" as="geometry" />
        </mxCell>
        <mxCell id="4" value="变量" style="rounded=1;whiteSpace=wrap;html=1;fillColor=#6a00ff;strokeColor=#3700CC;fontColor=#ffffff;" parent="1" vertex="1">
          <mxGeometry x="480" y="30" width="80" height="30" as="geometry" />
        </mxCell>
        <mxCell id="5" value="第三方&lt;br&gt;Optional" style="rounded=1;whiteSpace=wrap;html=1;fillColor=#f8cecc;strokeColor=#b85450;dashed=1;" parent="1" vertex="1">
          <mxGeometry x="630" y="30" width="80" height="30" as="geometry" />
        </mxCell>
        <mxCell id="6" value="Used in" style="endArrow=none;dashed=1;html=1;spacingBottom=22;fillColor=#f8cecc;strokeColor=#b85450;" parent="1" edge="1">
          <mxGeometry width="50" height="50" relative="1" as="geometry">
            <mxPoint x="920" y="50" as="sourcePoint" />
            <mxPoint x="840" y="50" as="targetPoint" />
          </mxGeometry>
        </mxCell>
        <mxCell id="7" value="开始" style="rounded=1;whiteSpace=wrap;html=1;fillColor=#fa6800;strokeColor=#C73500;fontColor=#000000;" parent="1" vertex="1">
          <mxGeometry x="110" y="30" width="80" height="30" as="geometry" />
        </mxCell>
        <mxCell id="8" value="&lt;resource_file_folder&gt; &lt;resources_json&gt; &lt;resource_type&gt; [file_ext_name]" style="text;whiteSpace=wrap;html=1;fillColor=#fff2cc;strokeColor=#d6b656;align=center;verticalAlign=middle;fontColor=default;rounded=1;" parent="1" vertex="1">
          <mxGeometry x="670" y="120" width="130" height="30" as="geometry" />
        </mxCell>
        <mxCell id="9" value="&amp;lt;resource_file_folder&amp;gt;" style="text;whiteSpace=wrap;html=1;align=center;verticalAlign=middle;fillColor=#fff2cc;strokeColor=#d6b656;rounded=1;" parent="1" vertex="1">
          <mxGeometry x="90" y="130" width="130" height="30" as="geometry" />
        </mxCell>
        <mxCell id="11" value="&amp;lt;resource_type&amp;gt;" style="text;whiteSpace=wrap;html=1;align=center;verticalAlign=middle;fillColor=#fff2cc;strokeColor=#d6b656;rounded=1;" parent="1" vertex="1">
          <mxGeometry x="270" y="90" width="130" height="33" as="geometry" />
        </mxCell>
        <mxCell id="13" value="layer-a" parent="0" />
        <mxCell id="16" value="Pool" style="swimlane;html=1;childLayout=stackLayout;resizeParent=1;resizeParentMax=0;horizontal=0;startSize=20;horizontalStack=0;whiteSpace=wrap;strokeColor=default;fillColor=default;" parent="13" vertex="1">
          <mxGeometry x="140" y="270" width="680" height="720" as="geometry" />
        </mxCell>
        <mxCell id="17" value="git" style="swimlane;html=1;startSize=20;horizontal=0;strokeColor=default;fillColor=default;" parent="16" vertex="1">
          <mxGeometry x="20" width="660" height="190" as="geometry" />
        </mxCell>
        <mxCell id="20" value="git&lt;br&gt;pull" style="rounded=1;whiteSpace=wrap;html=1;fillColor=#f8cecc;strokeColor=#b85450;" parent="17" vertex="1">
          <mxGeometry x="180" y="90" width="80" height="30" as="geometry" />
        </mxCell>
        <mxCell id="21" value="git clone" style="rounded=1;whiteSpace=wrap;html=1;fillColor=#f8cecc;strokeColor=#b85450;" parent="17" vertex="1">
          <mxGeometry x="340" y="90" width="80" height="30" as="geometry" />
        </mxCell>
        <mxCell id="23" style="edgeStyle=none;html=1;entryX=0.5;entryY=0;entryDx=0;entryDy=0;" parent="17" source="22" target="20" edge="1">
          <mxGeometry relative="1" as="geometry" />
        </mxCell>
        <mxCell id="25" value="yes" style="edgeLabel;html=1;align=center;verticalAlign=middle;resizable=0;points=[];" parent="23" vertex="1" connectable="0">
          <mxGeometry x="0.3116" y="-2" relative="1" as="geometry">
            <mxPoint as="offset" />
          </mxGeometry>
        </mxCell>
        <mxCell id="24" style="edgeStyle=none;html=1;entryX=0.5;entryY=0;entryDx=0;entryDy=0;" parent="17" source="22" target="21" edge="1">
          <mxGeometry relative="1" as="geometry" />
        </mxCell>
        <mxCell id="26" value="no" style="edgeLabel;html=1;align=center;verticalAlign=middle;resizable=0;points=[];" parent="24" vertex="1" connectable="0">
          <mxGeometry x="0.5121" y="1" relative="1" as="geometry">
            <mxPoint x="1" as="offset" />
          </mxGeometry>
        </mxCell>
        <mxCell id="22" value="路径存在" style="rhombus;whiteSpace=wrap;html=1;strokeColor=#d6b656;fillColor=#fff2cc;rounded=1;" parent="17" vertex="1">
          <mxGeometry x="280" y="30" width="50" height="40" as="geometry" />
        </mxCell>
        <mxCell id="18" value="http(s)" style="swimlane;html=1;startSize=20;horizontal=0;strokeColor=default;fillColor=default;" parent="16" vertex="1">
          <mxGeometry x="20" y="190" width="660" height="390" as="geometry" />
        </mxCell>
        <mxCell id="44" style="edgeStyle=none;html=1;entryX=0;entryY=0.389;entryDx=0;entryDy=0;entryPerimeter=0;" parent="18" source="43" target="37" edge="1">
          <mxGeometry relative="1" as="geometry" />
        </mxCell>
        <mxCell id="43" value="GLOBAL_DOWNLOAD_&lt;br&gt;HANDLE_TRANSFORMS&lt;br&gt;[__file_filter]" style="rounded=1;whiteSpace=wrap;html=1;fillColor=#fff2cc;strokeColor=#d6b656;" parent="18" vertex="1">
          <mxGeometry x="150" y="145" width="140" height="50" as="geometry" />
        </mxCell>
        <mxCell id="37" value="" style="points=[[0.25,0,0],[0.5,0,0],[0.75,0,0],[1,0.25,0],[1,0.5,0],[1,0.75,0],[0.75,1,0],[0.5,1,0],[0.25,1,0],[0,0.75,0],[0,0.5,0],[0,0.25,0]];rounded=1;arcSize=10;dashed=1;strokeColor=#000000;fillColor=none;gradientColor=none;dashPattern=8 3 1 3;strokeWidth=2;whiteSpace=wrap;" parent="18" vertex="1">
          <mxGeometry x="340" y="60" width="215" height="280" as="geometry" />
        </mxCell>
        <mxCell id="27" value="curl" style="rounded=1;whiteSpace=wrap;html=1;fillColor=#f8cecc;strokeColor=#b85450;" parent="18" vertex="1">
          <mxGeometry x="390" y="140" width="80" height="30" as="geometry" />
        </mxCell>
        <mxCell id="29" value="chunk" style="rounded=1;whiteSpace=wrap;html=1;fillColor=#fff2cc;strokeColor=#d6b656;" parent="18" vertex="1">
          <mxGeometry x="395" y="186" width="80" height="30" as="geometry" />
        </mxCell>
        <mxCell id="36" style="edgeStyle=none;html=1;entryX=1;entryY=0.5;entryDx=0;entryDy=0;exitX=1;exitY=0.5;exitDx=0;exitDy=0;" parent="18" source="69" target="27" edge="1">
          <mxGeometry relative="1" as="geometry">
            <Array as="points">
              <mxPoint x="530" y="250" />
              <mxPoint x="530" y="155" />
            </Array>
          </mxGeometry>
        </mxCell>
        <mxCell id="70" style="edgeStyle=none;html=1;exitX=0.5;exitY=1;exitDx=0;exitDy=0;entryX=0.5;entryY=0;entryDx=0;entryDy=0;" parent="18" source="30" target="69" edge="1">
          <mxGeometry relative="1" as="geometry" />
        </mxCell>
        <mxCell id="30" value="文件存在&lt;br&gt;追加" style="rounded=1;whiteSpace=wrap;html=1;fillColor=#fff2cc;strokeColor=#d6b656;" parent="18" vertex="1">
          <mxGeometry x="395" y="239" width="80" height="30" as="geometry" />
        </mxCell>
        <mxCell id="35" style="edgeStyle=none;html=1;entryX=0.5;entryY=0;entryDx=0;entryDy=0;" parent="18" source="29" target="30" edge="1">
          <mxGeometry relative="1" as="geometry" />
        </mxCell>
        <mxCell id="34" style="edgeStyle=none;html=1;entryX=0;entryY=0.5;entryDx=0;entryDy=0;" parent="18" source="27" target="29" edge="1">
          <mxGeometry relative="1" as="geometry">
            <mxPoint x="565" y="480.66666666666674" as="sourcePoint" />
            <mxPoint x="495" y="499.33333333333326" as="targetPoint" />
            <Array as="points">
              <mxPoint x="370" y="150" />
            </Array>
          </mxGeometry>
        </mxCell>
        <mxCell id="69" value="GLOBAL_DOWNLOAD_&lt;br&gt;HANDLE_TRANSFORMS" style="text;whiteSpace=wrap;html=1;align=center;verticalAlign=middle;fillColor=#fff2cc;strokeColor=#d6b656;rounded=1;" parent="18" vertex="1">
          <mxGeometry x="360" y="290" width="150" height="40" as="geometry" />
        </mxCell>
        <mxCell id="68" style="edgeStyle=none;html=1;exitX=0.5;exitY=0;exitDx=0;exitDy=0;" parent="18" source="43" edge="1">
          <mxGeometry relative="1" as="geometry">
            <mxPoint x="660" y="150" as="targetPoint" />
            <mxPoint x="170" y="111" as="sourcePoint" />
            <Array as="points">
              <mxPoint x="220" y="30" />
              <mxPoint x="430" y="31" />
              <mxPoint x="560" y="30" />
              <mxPoint x="640" y="30" />
              <mxPoint x="640" y="90" />
              <mxPoint x="640" y="150" />
            </Array>
          </mxGeometry>
        </mxCell>
        <mxCell id="75" style="edgeStyle=none;html=1;" parent="18" source="71" target="72" edge="1">
          <mxGeometry relative="1" as="geometry" />
        </mxCell>
        <mxCell id="71" value="resource_url" style="rounded=1;whiteSpace=wrap;html=1;fillColor=#fff2cc;strokeColor=#d6b656;" parent="18" vertex="1">
          <mxGeometry x="40" y="45" width="80" height="30" as="geometry" />
        </mxCell>
        <mxCell id="73" style="edgeStyle=none;html=1;entryX=0;entryY=0.5;entryDx=0;entryDy=0;" parent="18" source="72" target="43" edge="1">
          <mxGeometry relative="1" as="geometry" />
        </mxCell>
        <mxCell id="74" style="edgeStyle=none;html=1;entryX=0;entryY=0.75;entryDx=0;entryDy=0;entryPerimeter=0;" parent="18" source="72" target="37" edge="1">
          <mxGeometry relative="1" as="geometry">
            <Array as="points">
              <mxPoint x="80" y="270" />
            </Array>
          </mxGeometry>
        </mxCell>
        <mxCell id="72" value=",分隔" style="rhombus;whiteSpace=wrap;html=1;strokeColor=#d6b656;fillColor=#fff2cc;rounded=1;" parent="18" vertex="1">
          <mxGeometry x="55" y="150" width="50" height="40" as="geometry" />
        </mxCell>
        <mxCell id="79" style="edgeStyle=none;html=1;entryX=0.5;entryY=0;entryDx=0;entryDy=0;dashed=1;endArrow=none;endFill=0;" edge="1" parent="18" source="WZ0ZyfM4jvOKOlvT-OMO-81" target="77">
          <mxGeometry relative="1" as="geometry">
            <Array as="points">
              <mxPoint x="610" y="105" />
            </Array>
          </mxGeometry>
        </mxCell>
        <mxCell id="WZ0ZyfM4jvOKOlvT-OMO-81" value="pseudonym" style="rounded=1;whiteSpace=wrap;html=1;fillColor=#fff2cc;strokeColor=#d6b656;" parent="18" vertex="1">
          <mxGeometry x="390" y="90" width="80" height="30" as="geometry" />
        </mxCell>
        <mxCell id="WZ0ZyfM4jvOKOlvT-OMO-82" style="edgeStyle=none;html=1;" parent="18" source="WZ0ZyfM4jvOKOlvT-OMO-81" target="WZ0ZyfM4jvOKOlvT-OMO-81" edge="1">
          <mxGeometry relative="1" as="geometry" />
        </mxCell>
        <mxCell id="81" value="" style="edgeStyle=none;html=1;dashed=1;" edge="1" parent="18" source="77" target="78">
          <mxGeometry relative="1" as="geometry" />
        </mxCell>
        <mxCell id="77" value="update" style="rounded=1;whiteSpace=wrap;html=1;fillColor=#fff2cc;strokeColor=#d6b656;" vertex="1" parent="18">
          <mxGeometry x="570" y="170" width="80" height="30" as="geometry" />
        </mxCell>
        <mxCell id="80" style="edgeStyle=none;html=1;entryX=1.002;entryY=0.918;entryDx=0;entryDy=0;entryPerimeter=0;dashed=1;" edge="1" parent="18" source="78" target="37">
          <mxGeometry relative="1" as="geometry">
            <Array as="points">
              <mxPoint x="610" y="317" />
            </Array>
          </mxGeometry>
        </mxCell>
        <mxCell id="78" value="remove old file" style="rounded=1;whiteSpace=wrap;html=1;fillColor=#fff2cc;strokeColor=#d6b656;" vertex="1" parent="18">
          <mxGeometry x="570" y="220" width="80" height="30" as="geometry" />
        </mxCell>
        <mxCell id="19" value="example" style="swimlane;html=1;startSize=20;horizontal=0;strokeColor=default;fillColor=default;" parent="16" vertex="1">
          <mxGeometry x="20" y="580" width="660" height="140" as="geometry" />
        </mxCell>
        <mxCell id="76" value="http://10.43.173.10:39002/tools/eium/rdm/!91ngr,106,editors.sql&lt;br&gt;不是91ngr,106就下载" style="text;whiteSpace=wrap;html=1;" parent="19" vertex="1">
          <mxGeometry x="80" y="30" width="370" height="40" as="geometry" />
        </mxCell>
        <mxCell id="10" value="&amp;lt;resources_json&amp;gt;" style="text;whiteSpace=wrap;html=1;align=center;verticalAlign=middle;fillColor=#fff2cc;strokeColor=#d6b656;rounded=1;" parent="13" vertex="1">
          <mxGeometry x="395" y="120" width="130" height="30" as="geometry" />
        </mxCell>
        <mxCell id="42" value="Used in" style="endArrow=none;dashed=1;html=1;spacingBottom=22;fillColor=#f8cecc;strokeColor=#b85450;entryX=0.5;entryY=1;entryDx=0;entryDy=0;exitX=0.5;exitY=0;exitDx=0;exitDy=0;" parent="13" source="28" target="10" edge="1">
          <mxGeometry width="50" height="50" relative="1" as="geometry">
            <mxPoint x="660" y="489.5" as="sourcePoint" />
            <mxPoint x="580" y="489.5" as="targetPoint" />
          </mxGeometry>
        </mxCell>
        <mxCell id="28" value="key/value pairs" style="rounded=1;whiteSpace=wrap;html=1;fillColor=#fff2cc;strokeColor=#d6b656;" parent="13" vertex="1">
          <mxGeometry x="420" y="170" width="80" height="30" as="geometry" />
        </mxCell>
        <mxCell id="38" style="edgeStyle=none;html=1;entryX=0.003;entryY=0.571;entryDx=0;entryDy=0;entryPerimeter=0;" parent="13" source="28" target="16" edge="1">
          <mxGeometry relative="1" as="geometry">
            <mxPoint x="330" y="650" as="targetPoint" />
            <Array as="points">
              <mxPoint x="80" y="185" />
              <mxPoint x="80" y="607" />
            </Array>
          </mxGeometry>
        </mxCell>
        <mxCell id="39" style="edgeStyle=none;html=1;entryX=1;entryY=0.5;entryDx=0;entryDy=0;exitX=1;exitY=0.5;exitDx=0;exitDy=0;" parent="13" source="18" target="28" edge="1">
          <mxGeometry relative="1" as="geometry">
            <mxPoint x="600" y="530" as="targetPoint" />
            <Array as="points">
              <mxPoint x="890" y="590" />
              <mxPoint x="890" y="185" />
            </Array>
          </mxGeometry>
        </mxCell>
      </root>
    </mxGraphModel>
  </diagram>
  <diagram id="1CxahsI00tu5-ZIiY29P" name="replace_map_with_key">
    <mxGraphModel dx="693" dy="318" grid="1" gridSize="10" guides="1" tooltips="1" connect="1" arrows="1" fold="1" page="1" pageScale="1" pageWidth="850" pageHeight="1100" math="0" shadow="0">
      <root>
        <mxCell id="0" />
        <mxCell id="1" parent="0" />
        <mxCell id="Da4RXDH8qaKK9wM2Tk3P-9" style="edgeStyle=none;html=1;dashed=1;" parent="1" source="0F5_E-YfyZMmeCR8uyyA-1" target="0F5_E-YfyZMmeCR8uyyA-7" edge="1">
          <mxGeometry relative="1" as="geometry" />
        </mxCell>
        <mxCell id="0F5_E-YfyZMmeCR8uyyA-1" value="&amp;lt;map_variable&amp;gt;" style="rounded=1;whiteSpace=wrap;html=1;fillColor=#fff2cc;strokeColor=#d6b656;" parent="1" vertex="1">
          <mxGeometry x="290" y="440" width="80" height="30" as="geometry" />
        </mxCell>
        <mxCell id="Da4RXDH8qaKK9wM2Tk3P-1" style="edgeStyle=none;html=1;dashed=1;" parent="1" source="0F5_E-YfyZMmeCR8uyyA-2" target="0F5_E-YfyZMmeCR8uyyA-7" edge="1">
          <mxGeometry relative="1" as="geometry" />
        </mxCell>
        <mxCell id="0F5_E-YfyZMmeCR8uyyA-2" value="&amp;lt;map_inner_variable&amp;gt;" style="rounded=1;whiteSpace=wrap;html=1;fillColor=#fff2cc;strokeColor=#d6b656;" parent="1" vertex="1">
          <mxGeometry x="90" y="500" width="80" height="30" as="geometry" />
        </mxCell>
        <mxCell id="Da4RXDH8qaKK9wM2Tk3P-2" style="edgeStyle=none;html=1;entryX=1;entryY=0.5;entryDx=0;entryDy=0;dashed=1;exitX=1;exitY=0.5;exitDx=0;exitDy=0;" parent="1" source="0F5_E-YfyZMmeCR8uyyA-3" target="0F5_E-YfyZMmeCR8uyyA-7" edge="1">
          <mxGeometry relative="1" as="geometry">
            <mxPoint x="430" y="710" as="sourcePoint" />
            <Array as="points">
              <mxPoint x="430" y="725" />
              <mxPoint x="430" y="515" />
            </Array>
          </mxGeometry>
        </mxCell>
        <mxCell id="0F5_E-YfyZMmeCR8uyyA-3" value="&amp;lt;map_customized_variable&amp;gt;" style="rounded=1;whiteSpace=wrap;html=1;fillColor=#fff2cc;strokeColor=#d6b656;" parent="1" vertex="1">
          <mxGeometry x="290" y="710" width="80" height="30" as="geometry" />
        </mxCell>
        <mxCell id="Da4RXDH8qaKK9wM2Tk3P-10" style="edgeStyle=none;html=1;entryX=0;entryY=0.25;entryDx=0;entryDy=0;dashed=1;" parent="1" source="0F5_E-YfyZMmeCR8uyyA-4" target="0F5_E-YfyZMmeCR8uyyA-7" edge="1">
          <mxGeometry relative="1" as="geometry" />
        </mxCell>
        <mxCell id="Da4RXDH8qaKK9wM2Tk3P-11" value="作为key变量" style="edgeLabel;html=1;align=center;verticalAlign=middle;resizable=0;points=[];" parent="Da4RXDH8qaKK9wM2Tk3P-10" vertex="1" connectable="0">
          <mxGeometry x="-0.1787" relative="1" as="geometry">
            <mxPoint as="offset" />
          </mxGeometry>
        </mxCell>
        <mxCell id="0F5_E-YfyZMmeCR8uyyA-4" value="&amp;lt;case_name&amp;gt;" style="rounded=1;whiteSpace=wrap;html=1;fillColor=#fff2cc;strokeColor=#d6b656;" parent="1" vertex="1">
          <mxGeometry x="90" y="450" width="80" height="30" as="geometry" />
        </mxCell>
        <mxCell id="Da4RXDH8qaKK9wM2Tk3P-12" style="edgeStyle=none;html=1;dashed=1;entryX=0;entryY=0.5;entryDx=0;entryDy=0;" parent="1" source="0F5_E-YfyZMmeCR8uyyA-5" target="Da4RXDH8qaKK9wM2Tk3P-13" edge="1">
          <mxGeometry relative="1" as="geometry">
            <mxPoint x="220" y="574" as="targetPoint" />
          </mxGeometry>
        </mxCell>
        <mxCell id="0F5_E-YfyZMmeCR8uyyA-5" value="[inner_variable1...N]" style="rounded=1;whiteSpace=wrap;html=1;fillColor=#fff2cc;strokeColor=#d6b656;" parent="1" vertex="1">
          <mxGeometry x="90" y="559" width="80" height="30" as="geometry" />
        </mxCell>
        <mxCell id="0F5_E-YfyZMmeCR8uyyA-8" style="edgeStyle=none;html=1;entryX=1;entryY=0.5;entryDx=0;entryDy=0;exitX=0.5;exitY=1;exitDx=0;exitDy=0;" parent="1" source="0F5_E-YfyZMmeCR8uyyA-7" target="0F5_E-YfyZMmeCR8uyyA-1" edge="1">
          <mxGeometry relative="1" as="geometry">
            <mxPoint x="390" y="450" as="targetPoint" />
            <Array as="points">
              <mxPoint x="390" y="550" />
              <mxPoint x="400" y="460" />
            </Array>
          </mxGeometry>
        </mxCell>
        <mxCell id="Da4RXDH8qaKK9wM2Tk3P-6" style="edgeStyle=none;html=1;entryX=0.5;entryY=0;entryDx=0;entryDy=0;dashed=1;" parent="1" source="0F5_E-YfyZMmeCR8uyyA-7" target="Da4RXDH8qaKK9wM2Tk3P-5" edge="1">
          <mxGeometry relative="1" as="geometry" />
        </mxCell>
        <mxCell id="0F5_E-YfyZMmeCR8uyyA-7" value="变量替换" style="rounded=1;whiteSpace=wrap;html=1;fillColor=#fff2cc;strokeColor=#d6b656;" parent="1" vertex="1">
          <mxGeometry x="290" y="500" width="80" height="30" as="geometry" />
        </mxCell>
        <mxCell id="Da4RXDH8qaKK9wM2Tk3P-18" style="edgeStyle=none;html=1;dashed=1;" parent="1" source="Da4RXDH8qaKK9wM2Tk3P-5" edge="1">
          <mxGeometry relative="1" as="geometry">
            <mxPoint x="330" y="710" as="targetPoint" />
          </mxGeometry>
        </mxCell>
        <mxCell id="Da4RXDH8qaKK9wM2Tk3P-19" value="variablesN的Json变量展开后加入" style="edgeLabel;html=1;align=center;verticalAlign=middle;resizable=0;points=[];" parent="Da4RXDH8qaKK9wM2Tk3P-18" vertex="1" connectable="0">
          <mxGeometry x="0.4054" y="-1" relative="1" as="geometry">
            <mxPoint as="offset" />
          </mxGeometry>
        </mxCell>
        <mxCell id="Da4RXDH8qaKK9wM2Tk3P-5" value="递归完成" style="rhombus;whiteSpace=wrap;html=1;fillColor=#fff2cc;strokeColor=#d6b656;rounded=1;" parent="1" vertex="1">
          <mxGeometry x="305" y="600" width="50" height="40" as="geometry" />
        </mxCell>
        <mxCell id="Da4RXDH8qaKK9wM2Tk3P-15" style="edgeStyle=none;html=1;entryX=0;entryY=0.5;entryDx=0;entryDy=0;dashed=1;" parent="1" source="Da4RXDH8qaKK9wM2Tk3P-13" target="0F5_E-YfyZMmeCR8uyyA-7" edge="1">
          <mxGeometry relative="1" as="geometry" />
        </mxCell>
        <mxCell id="Da4RXDH8qaKK9wM2Tk3P-16" style="edgeStyle=none;html=1;entryX=1;entryY=1;entryDx=0;entryDy=0;dashed=1;" parent="1" source="Da4RXDH8qaKK9wM2Tk3P-13" target="0F5_E-YfyZMmeCR8uyyA-2" edge="1">
          <mxGeometry relative="1" as="geometry" />
        </mxCell>
        <mxCell id="Da4RXDH8qaKK9wM2Tk3P-17" value="加入" style="edgeLabel;html=1;align=center;verticalAlign=middle;resizable=0;points=[];" parent="Da4RXDH8qaKK9wM2Tk3P-16" vertex="1" connectable="0">
          <mxGeometry x="0.3554" relative="1" as="geometry">
            <mxPoint as="offset" />
          </mxGeometry>
        </mxCell>
        <mxCell id="Da4RXDH8qaKK9wM2Tk3P-13" value="变量替换且加入" style="rhombus;whiteSpace=wrap;html=1;fillColor=#fff2cc;strokeColor=#d6b656;rounded=1;" parent="1" vertex="1">
          <mxGeometry x="240" y="559" width="50" height="30" as="geometry" />
        </mxCell>
      </root>
    </mxGraphModel>
  </diagram>
  <diagram id="4f79v2EPYMrjJtU9oRF-" name="检查文件存在">
    <mxGraphModel dx="693" dy="318" grid="1" gridSize="10" guides="1" tooltips="1" connect="1" arrows="1" fold="1" page="1" pageScale="1" pageWidth="1100" pageHeight="850" math="0" shadow="0">
      <root>
        <mxCell id="0" />
        <mxCell id="1" parent="0" />
        <mxCell id="ssb4aBM9-JEQqBrngSqA-1" value="文件" style="rounded=1;whiteSpace=wrap;html=1;fillColor=#f8cecc;strokeColor=#b85450;" parent="1" vertex="1">
          <mxGeometry x="290" y="440" width="80" height="30" as="geometry" />
        </mxCell>
        <mxCell id="ssb4aBM9-JEQqBrngSqA-2" value="目录" style="rounded=1;whiteSpace=wrap;html=1;fillColor=#f8cecc;strokeColor=#b85450;" parent="1" vertex="1">
          <mxGeometry x="290" y="490" width="80" height="30" as="geometry" />
        </mxCell>
        <mxCell id="ssb4aBM9-JEQqBrngSqA-3" value="链接" style="rounded=1;whiteSpace=wrap;html=1;fillColor=#f8cecc;strokeColor=#b85450;" parent="1" vertex="1">
          <mxGeometry x="290" y="540" width="80" height="30" as="geometry" />
        </mxCell>
        <mxCell id="e_XNl-QtFzK6CSsyp-th-4" style="edgeStyle=none;html=1;entryX=0;entryY=0.5;entryDx=0;entryDy=0;dashed=1;" parent="1" source="e_XNl-QtFzK6CSsyp-th-1" target="ssb4aBM9-JEQqBrngSqA-1" edge="1">
          <mxGeometry relative="1" as="geometry" />
        </mxCell>
        <mxCell id="e_XNl-QtFzK6CSsyp-th-1" value="-f" style="rounded=1;whiteSpace=wrap;html=1;fillColor=#fff2cc;strokeColor=#d6b656;" parent="1" vertex="1">
          <mxGeometry x="40" y="440" width="80" height="30" as="geometry" />
        </mxCell>
        <mxCell id="e_XNl-QtFzK6CSsyp-th-3" style="edgeStyle=none;html=1;entryX=0;entryY=0.5;entryDx=0;entryDy=0;dashed=1;" parent="1" source="e_XNl-QtFzK6CSsyp-th-2" target="ssb4aBM9-JEQqBrngSqA-2" edge="1">
          <mxGeometry relative="1" as="geometry" />
        </mxCell>
        <mxCell id="e_XNl-QtFzK6CSsyp-th-12" style="edgeStyle=none;html=1;entryX=0;entryY=0;entryDx=0;entryDy=0;dashed=1;" parent="1" source="e_XNl-QtFzK6CSsyp-th-2" target="ssb4aBM9-JEQqBrngSqA-3" edge="1">
          <mxGeometry relative="1" as="geometry" />
        </mxCell>
        <mxCell id="e_XNl-QtFzK6CSsyp-th-2" value="-d" style="rounded=1;whiteSpace=wrap;html=1;fillColor=#fff2cc;strokeColor=#d6b656;" parent="1" vertex="1">
          <mxGeometry x="140" y="490" width="80" height="30" as="geometry" />
        </mxCell>
        <mxCell id="e_XNl-QtFzK6CSsyp-th-6" style="edgeStyle=none;html=1;entryX=1;entryY=0.5;entryDx=0;entryDy=0;dashed=1;exitX=0;exitY=0.75;exitDx=0;exitDy=0;" parent="1" source="e_XNl-QtFzK6CSsyp-th-9" target="ssb4aBM9-JEQqBrngSqA-2" edge="1">
          <mxGeometry relative="1" as="geometry">
            <mxPoint x="590" y="505" as="sourcePoint" />
          </mxGeometry>
        </mxCell>
        <mxCell id="e_XNl-QtFzK6CSsyp-th-8" style="edgeStyle=none;html=1;dashed=1;" parent="1" source="e_XNl-QtFzK6CSsyp-th-7" target="ssb4aBM9-JEQqBrngSqA-3" edge="1">
          <mxGeometry relative="1" as="geometry" />
        </mxCell>
        <mxCell id="e_XNl-QtFzK6CSsyp-th-7" value="-L" style="rounded=1;whiteSpace=wrap;html=1;fillColor=#fff2cc;strokeColor=#d6b656;" parent="1" vertex="1">
          <mxGeometry x="40" y="540" width="80" height="30" as="geometry" />
        </mxCell>
        <mxCell id="e_XNl-QtFzK6CSsyp-th-10" style="edgeStyle=none;html=1;entryX=1;entryY=0.5;entryDx=0;entryDy=0;dashed=1;" parent="1" source="e_XNl-QtFzK6CSsyp-th-9" target="ssb4aBM9-JEQqBrngSqA-1" edge="1">
          <mxGeometry relative="1" as="geometry" />
        </mxCell>
        <mxCell id="e_XNl-QtFzK6CSsyp-th-11" style="edgeStyle=none;html=1;entryX=1;entryY=0.75;entryDx=0;entryDy=0;dashed=1;" parent="1" source="e_XNl-QtFzK6CSsyp-th-9" target="ssb4aBM9-JEQqBrngSqA-3" edge="1">
          <mxGeometry relative="1" as="geometry">
            <Array as="points">
              <mxPoint x="480" y="560" />
            </Array>
          </mxGeometry>
        </mxCell>
        <mxCell id="e_XNl-QtFzK6CSsyp-th-9" value="-e" style="rounded=1;whiteSpace=wrap;html=1;fillColor=#fff2cc;strokeColor=#d6b656;" parent="1" vertex="1">
          <mxGeometry x="440" y="460" width="80" height="30" as="geometry" />
        </mxCell>
        <mxCell id="e_XNl-QtFzK6CSsyp-th-14" style="edgeStyle=none;html=1;entryX=1;entryY=0.25;entryDx=0;entryDy=0;dashed=1;" parent="1" source="e_XNl-QtFzK6CSsyp-th-13" target="ssb4aBM9-JEQqBrngSqA-1" edge="1">
          <mxGeometry relative="1" as="geometry">
            <Array as="points">
              <mxPoint x="580" y="450" />
            </Array>
          </mxGeometry>
        </mxCell>
        <mxCell id="e_XNl-QtFzK6CSsyp-th-15" style="edgeStyle=none;html=1;entryX=1;entryY=0.5;entryDx=0;entryDy=0;dashed=1;" parent="1" source="e_XNl-QtFzK6CSsyp-th-13" target="ssb4aBM9-JEQqBrngSqA-2" edge="1">
          <mxGeometry relative="1" as="geometry" />
        </mxCell>
        <mxCell id="e_XNl-QtFzK6CSsyp-th-16" style="edgeStyle=none;html=1;entryX=1;entryY=0.75;entryDx=0;entryDy=0;dashed=1;" parent="1" source="e_XNl-QtFzK6CSsyp-th-13" target="ssb4aBM9-JEQqBrngSqA-3" edge="1">
          <mxGeometry relative="1" as="geometry">
            <Array as="points">
              <mxPoint x="580" y="560" />
            </Array>
          </mxGeometry>
        </mxCell>
        <mxCell id="e_XNl-QtFzK6CSsyp-th-13" value="-s&lt;br&gt;非空" style="rounded=1;whiteSpace=wrap;html=1;fillColor=#fff2cc;strokeColor=#d6b656;" parent="1" vertex="1">
          <mxGeometry x="540" y="490" width="80" height="30" as="geometry" />
        </mxCell>
      </root>
    </mxGraphModel>
  </diagram>
  <diagram id="IsX8J4dFs9q48QTyVD4B" name="demo">
    <mxGraphModel dx="773" dy="738" grid="1" gridSize="10" guides="1" tooltips="1" connect="1" arrows="1" fold="1" page="1" pageScale="1" pageWidth="827" pageHeight="1169" math="0" shadow="0">
      <root>
        <mxCell id="0" />
        <mxCell id="1" parent="0" />
        <mxCell id="G3w_GLovODXBlQBp4dxl-1" value="" style="ellipse;whiteSpace=wrap;html=1;" vertex="1" parent="1">
          <mxGeometry x="310" y="220" width="120" height="80" as="geometry" />
        </mxCell>
      </root>
    </mxGraphModel>
  </diagram>
</mxfile>
